:SAMPLES-PER-SECOND 30
:FRAME-RANGE 1-744
:FULLY-SPECIFIED
:DEGREES
163
root  -25.8829 40.0577 -75.5942 -14.3609 47.4632 -1.94061
RightUpLeg  21.0901 -4.50947 -1.90693
RightLeg  -3.27429 -1.46404 -1.8968
RightFoot  -7.23327 -0.32559 7.69278
RightToes  5.82063e-011 0 -3.6325e-017
Spine  17.3195 5.93704 16.3034
Spine1  -5.24711 10.2186 -12.9822
HEad  -3.85507 24.8395 -14.4822
LeftShoulder1  2.91216 -4.92243 -28.5096
LeftArm  -10.2097 -22.5525 -16.7044
LeftForeArm  -60.7915 -30.3828 -8.81874
LeftHand  -0.1394 4.48368 16.64
RightShoulder  20.1689 29.7961 52.6858
RightArm  -1.24493 27.1653 0.507821
RightForeArm  -14.8099 26.9302 6.53471
RightHand  1.70232 18.2765 7.78578
LeftUpLeg  -2.5204 0.647713 -1.77274
LeftLeg  -2.38841 4.77943 1.41152
LeftFoot  3.58299 -0.261644 1.83173
LeftToes  1.25507e-010 -3.78807e-010 5.71421e-011
164
root  -25.2251 39.9203 -74.6105 -14.6927 49.4819 -2.82384
RightUpLeg  23.3487 -4.20604 -0.683402
RightLeg  -4.25955 -4.22021 -1.41301
RightFoot  -8.46842 -0.239914 7.25901
RightToes  5.82063e-011 0 -3.6325e-017
Spine  16.7258 6.17311 16.79
Spine1  -4.92384 10.5244 -13.5558
HEad  -3.46619 23.125 -13.5344
LeftShoulder1  2.8787 -5.00437 -27.7642
LeftArm  -10.4095 -23.8989 -15.5386
LeftForeArm  -60.6874 -33.691 -9.75121
LeftHand  -0.0866438 4.81328 15.1013
RightShoulder  20.4651 31.5693 50.7127
RightArm  -3.94054 28.9629 0.141731
RightForeArm  -20.1675 26.123 6.58177
RightHand  1.98344 17.7484 9.37075
LeftUpLeg  -2.107 -0.278303 -1.75534
LeftLeg  -9.65902 2.0799 2.11649
LeftFoot  2.5047 -0.204056 1.55573
LeftToes  1.25507e-010 -3.78807e-010 5.71421e-011
165
root  -24.5863 39.7516 -73.6861 -15.1376 51.5508 -3.77531
RightUpLeg  24.8453 -3.69918 0.802627
RightLeg  -3.93889 -7.21712 -1.02857
RightFoot  -10.1189 -0.144825 7.11533
RightToes  5.82063e-011 0 -3.6325e-017
Spine  17.1528 6.26924 16.6399
Spine1  -5.65512 10.5817 -13.8711
HEad  -3.29595 21.4686 -12.7551
LeftShoulder1  2.84961 -5.08007 -27.1072
LeftArm  -10.8787 -24.7319 -14.4492
LeftForeArm  -58.7596 -37.305 -10.852
LeftHand  -0.129385 4.62032 18.2396
RightShoulder  20.4102 32.9029 48.6495
RightArm  -6.09808 30.4378 -0.221145
RightForeArm  -26.5779 25.3667 6.66576
RightHand  2.27746 16.8896 11.2665
LeftUpLeg  -3.03719 -1.05767 -1.76279
LeftLeg  -10.9156 -0.486906 3.29649
LeftFoot  -3.86791 0.049486 -0.401052
LeftToes  1.25507e-010 -3.78807e-010 5.71421e-011
166
root  -23.9397 39.538 -72.7901 -15.411 53.5215 -4.35434
RightUpLeg  25.2331 -3.2105 2.13558
RightLeg  -1.22643 -9.96339 -1.22018
RightFoot  -12.6532 -0.00212522 7.3157
RightToes  5.82063e-011 0 -3.6325e-017
Spine  17.7047 6.42436 15.9661
Spine1  -6.07898 10.6571 -13.9329
HEad  -4.12012 19.5433 -12.214
LeftShoulder1  2.85364 -5.20881 -26.6481
LeftArm  -11.9458 -25.6381 -13.2303
LeftForeArm  -58.2397 -40.8873 -12.0912
LeftHand  -0.0807166 4.92794 17.9646
RightShoulder  20.0639 33.9707 46.3438
RightArm  -8.43368 31.5577 -0.639893
RightForeArm  -32.0542 24.8654 6.75029
RightHand  2.50189 16.0665 12.916
LeftUpLeg  -4.97601 -1.15575 -1.6085
LeftLeg  -7.49332 -3.73177 3.37997
LeftFoot  -3.87702 0.00628829 0.26181
LeftToes  1.25507e-010 -3.78807e-010 5.71421e-011
167
root  -23.1855 39.3785 -71.9112 -15.4103 54.44 -4.36893
RightUpLeg  25.1101 -2.88433 2.85799
RightLeg  2.90342 -11.177 -2.0302
RightFoot  -14.6423 0.144573 8.45693
RightToes  5.82063e-011 0 -3.6325e-017
Spine  17.8771 6.92062 15.6038
Spine1  -5.60577 11.2835 -14.5561
HEad  -5.19606 17.646 -11.5031
LeftShoulder1  2.84878 -5.35563 -26.0284
LeftArm  -12.7473 -26.1447 -12.1967
LeftForeArm  -56.8658 -44.4437 -13.4737
LeftHand  -0.0570049 5.08371 18.0451
RightShoulder  19.7118 34.8473 44.3504
RightArm  -9.79748 32.1296 -1.2325
RightForeArm  -36.7187 24.7725 6.88407
RightHand  2.66105 15.0679 14.4612
LeftUpLeg  -5.8693 -1.48428 -1.77979
LeftLeg  -3.81274 -3.90647 3.55564
LeftFoot  -2.34808 -0.100129 1.45362
LeftToes  1.25507e-010 -3.78807e-010 5.71421e-011
168
root  -22.3518 39.3096 -71.0708 -15.744 54.3714 -4.49028
RightUpLeg  24.2811 -1.38399 3.91264
RightLeg  9.02712 -11.4418 -3.42271
RightFoot  -15.4814 0.309234 11.4361
RightToes  5.82063e-011 0 -3.6325e-017
Spine  18.4535 7.43748 15.3796
Spine1  -5.50748 11.936 -15.3107
HEad  -5.25677 16.4369 -10.4715
LeftShoulder1  2.78562 -5.21621 -25.8091
LeftArm  -13.0172 -25.6816 -10.5123
LeftForeArm  -54.4499 -48.1024 -15.0981
LeftHand  -0.0477446 5.14765 18.5786
RightShoulder  19.6517 35.6786 43.1623
RightArm  -9.50625 32.3966 -1.21812
RightForeArm  -40.6151 24.6478 6.9719
RightHand  2.72542 14.252 15.4575
LeftUpLeg  -6.06103 -1.1925 -1.56128
LeftLeg  -0.605518 -4.25836 3.61406
LeftFoot  1.98939 -0.162271 1.28568
LeftToes  1.25507e-010 -3.78807e-010 5.71421e-011
